<svg width="9" height="12" viewBox="0 0 9 12" fill="none" xmlns="http://www.w3.org/2000/svg">
<path fill-rule="evenodd" clip-rule="evenodd" d="M4.25692 4.17214C3.45782 4.17214 2.69145 4.48958 2.12641 5.05463C1.56136 5.61968 1.24392 6.38604 1.24392 7.18514C1.24392 7.78105 1.42063 8.36359 1.7517 8.85907C2.08278 9.35456 2.55334 9.74074 3.10389 9.96879C3.65445 10.1968 4.26026 10.2565 4.84472 10.1402C5.42919 10.024 5.96605 9.73702 6.38743 9.31565C6.8088 8.89427 7.09576 8.35741 7.21202 7.77295C7.32828 7.18848 7.26861 6.58267 7.04056 6.03212C6.81252 5.48156 6.42633 5.011 5.93085 4.67993C5.43536 4.34885 4.85283 4.17214 4.25692 4.17214ZM4.25692 2.97803C5.08901 2.97803 5.90241 3.22477 6.59426 3.68705C7.28612 4.14934 7.82535 4.8064 8.14378 5.57515C8.46221 6.3439 8.54552 7.18981 8.38319 8.00591C8.22086 8.82201 7.82017 9.57164 7.23179 10.16C6.64342 10.7484 5.89378 11.1491 5.07768 11.3114C4.26158 11.4737 3.41567 11.3904 2.64692 11.072C1.87818 10.7536 1.22111 10.2143 0.758831 9.52249C0.296548 8.83063 0.0498051 8.01723 0.0498051 7.18514C0.0498051 6.06934 0.493053 4.99925 1.28204 4.21026C1.92893 3.56338 2.76478 3.14891 3.65986 3.02059V2.97803H4.25692Z" fill="#4D2D15"/>
<path fill-rule="evenodd" clip-rule="evenodd" d="M1.24392 0.686279V7.18227H0.0498047V0.686279H1.24392Z" fill="#4D2D15"/>
<path fill-rule="evenodd" clip-rule="evenodd" d="M0 0.63623H1.29412V4.12835C1.93141 3.51058 2.74214 3.11088 3.61005 2.97742V2.92798H4.25711C5.09909 2.92798 5.92216 3.17765 6.62224 3.64543C7.32232 4.11321 7.86796 4.77808 8.19017 5.55596C8.51238 6.33385 8.59669 7.18981 8.43243 8.01561C8.26816 8.84141 7.86271 9.59996 7.26734 10.1953C6.67198 10.7907 5.91343 11.1961 5.08763 11.3604C4.26184 11.5247 3.40587 11.4404 2.62799 11.1181C1.8501 10.7959 1.18523 10.2503 0.717453 9.55022C0.258408 8.86321 0.00939839 8.05776 0.000261284 7.23223L0 0.63623ZM0.100268 7.23223C0.1094 8.03798 0.352543 8.82409 0.8006 9.49466C1.25739 10.1783 1.90664 10.7111 2.66625 11.0258C3.42587 11.3404 4.26172 11.4227 5.06812 11.2623C5.87453 11.1019 6.61525 10.706 7.19663 10.1246C7.77802 9.54323 8.17394 8.8025 8.33435 7.9961C8.49475 7.1897 8.41242 6.35385 8.09778 5.59423C7.78314 4.83462 7.25031 4.18537 6.56668 3.72858C5.88305 3.27179 5.07931 3.02798 4.25711 3.02798H3.71005V3.06389L3.66715 3.07004C2.78271 3.19683 1.95679 3.60637 1.31759 4.24557C1.30973 4.25343 1.30191 4.26132 1.29412 4.26923V6.40879C1.4307 5.88753 1.70368 5.40679 2.09125 5.01923C2.66567 4.4448 3.44476 4.1221 4.25711 4.1221C4.86292 4.1221 5.45511 4.30174 5.95882 4.6383C6.46253 4.97487 6.85512 5.45324 7.08695 6.01293C7.31878 6.57262 7.37944 7.18849 7.26125 7.78265C7.14307 8.37681 6.85134 8.92259 6.42298 9.35096C5.99461 9.77932 5.44884 10.071 4.85467 10.1892C4.26051 10.3074 3.64464 10.2468 3.08495 10.0149C2.52527 9.7831 2.04689 9.39051 1.71032 8.8868C1.38249 8.39617 1.20355 7.82157 1.19448 7.23223H0.100268ZM1.19412 7.13223H0.100336C0.113342 6.10835 0.503762 5.12674 1.19412 4.37446V7.13223ZM1.19412 4.22856C0.644359 4.79809 0.268259 5.50532 0.1 6.26773V0.73623H1.19412V4.22856ZM1.29412 7.18509C1.29412 7.77112 1.46789 8.34398 1.79347 8.83124C2.11905 9.31851 2.58181 9.69828 3.12322 9.92254C3.66464 10.1468 4.2604 10.2055 4.83516 10.0912C5.40993 9.97682 5.93788 9.69463 6.35227 9.28024C6.76665 8.86586 7.04885 8.33791 7.16317 7.76314C7.2775 7.18838 7.21882 6.59262 6.99456 6.0512C6.7703 5.50979 6.39053 5.04703 5.90326 4.72145C5.416 4.39587 4.84314 4.2221 4.25711 4.2221C3.47128 4.2221 2.71763 4.53427 2.16196 5.08994C1.60629 5.64561 1.29412 6.39926 1.29412 7.18509Z" fill="#4D2D15"/>
</svg>
