<svg width="40" height="26" viewBox="0 0 40 26" fill="none" xmlns="http://www.w3.org/2000/svg">
<path d="M3.48561 0.136719H36.5169C38.3288 0.136719 39.8619 1.62629 39.8619 3.38671V22.6159C39.8619 24.3763 38.3288 25.8659 36.5169 25.8659H3.48561C1.67376 25.8659 0.140625 24.3763 0.140625 22.6159V3.38671C0.140625 1.62629 1.67376 0.136719 3.48561 0.136719Z" fill="#767676"/>
<path d="M36.5157 26H3.48433C1.5331 26 0 24.5104 0 22.6146V3.38541C0 1.48958 1.5331 0 3.48433 0H36.5157C38.4669 0 40 1.48958 40 3.38541V22.6146C40 24.5104 38.4669 26 36.5157 26ZM3.48433 0.27085C1.67248 0.27085 0.278678 1.625 0.278678 3.38541V22.6146C0.278678 24.375 1.67248 25.7292 3.48433 25.7292H36.5157C38.3275 25.7292 39.7213 24.375 39.7213 22.6146V3.38541C39.7213 1.625 38.3275 0.27085 36.5157 0.27085H3.48433Z" fill="#C4C4C4"/>
<path d="M19.9312 9.31275L18.247 16.8391H16.2821L17.9663 9.31275H19.9312ZM28.2119 14.1022L29.1944 11.2285L29.7558 14.1022H28.2119ZM30.4575 16.8391H32.2821L30.7382 9.31275H29.054C28.633 9.31275 28.3523 9.58643 28.2119 9.86011L25.2646 16.8391H27.3698L27.7909 15.7443H30.3172L30.4575 16.8391ZM25.2646 14.3759C25.2646 12.3233 22.4575 12.1864 22.4575 11.3654C22.4575 11.0917 22.7382 10.818 23.2996 10.6812C24.0014 10.6812 24.7031 10.6812 25.2646 10.9549L25.5453 9.31275C24.9839 9.03906 24.2821 9.03906 23.7207 9.03906C21.7558 9.03906 20.3523 9.99696 20.3523 11.5022C20.3523 12.597 21.3347 13.1443 22.0365 13.5549C22.7382 13.9654 23.0189 14.1022 23.0189 14.5127C23.0189 15.0601 22.4575 15.197 21.8961 15.197C21.1944 15.197 20.4926 15.0601 19.9312 14.6496L19.6505 16.4285C20.3523 16.7022 21.054 16.8391 21.8961 16.8391C23.861 16.8391 25.2646 15.8812 25.2646 14.3759ZM17.1242 9.31275L13.8961 16.8391H11.7909L10.1067 10.818C10.1067 10.5443 9.96632 10.2706 9.68562 10.1338C9.12421 9.86011 8.42246 9.58643 7.7207 9.44959V9.1759H11.0891C11.5102 9.1759 11.9312 9.44959 12.0716 9.99696L12.9137 14.3759L15.0189 9.31275H17.1242Z" fill="white"/>
<path d="M9.68562 10.122C8.98386 9.84827 8.42246 9.57459 7.7207 9.43775V9.16406H11.2295C11.6505 9.16406 12.0716 9.43775 12.2119 9.98512L12.9137 14.0904C12.3523 11.6272 9.68562 10.122 9.68562 10.122Z" fill="#CBCBCB"/>
</svg>
