<svg width="40" height="26" viewBox="0 0 40 26" fill="none" xmlns="http://www.w3.org/2000/svg">
<path d="M3.48557 0.136719H36.5169C38.3288 0.136719 39.8619 1.6263 39.8619 3.38672V22.6159C39.8619 24.3763 38.3288 25.8659 36.5169 25.8659H3.48557C1.67373 25.8659 0.140625 24.3763 0.140625 22.6159V3.38672C0.140625 1.6263 1.67373 0.136719 3.48557 0.136719Z" fill="white"/>
<path d="M36.5157 26H3.48432C1.5331 26 0 24.5104 0 22.6146V3.38542C0 1.48958 1.5331 0 3.48432 0H36.5157C38.3275 0 40 1.48958 40 3.38542V22.6146C40 24.5104 38.3275 26 36.5157 26ZM3.48432 0.270833C1.67247 0.270833 0.278746 1.625 0.278746 3.38542V22.6146C0.278746 24.375 1.67247 25.7292 3.48432 25.7292H36.5157C38.3275 25.7292 39.7213 24.375 39.7213 22.6146V3.38542C39.7213 1.625 38.3275 0.270833 36.5157 0.270833H3.48432Z" fill="#C4C4C4"/>
<path d="M10.7304 9.07162C11.1485 8.66537 11.2879 8.1237 11.1485 7.58203C10.591 7.58203 10.1729 7.85286 9.75476 8.25912C9.47601 8.52995 9.19727 9.20703 9.19727 9.61328C9.75476 9.7487 10.3122 9.34245 10.7304 9.07162Z" fill="#767676"/>
<path d="M11.1493 9.75C10.313 9.75 9.75556 10.1562 9.33744 10.1562C8.91932 10.1562 8.36183 9.75 7.80434 9.75C6.9681 9.75 6.27124 10.1562 5.85312 10.8333C5.01688 12.1875 5.57437 14.3542 6.41061 15.4375C6.82873 15.9792 7.24685 16.6562 7.94371 16.6562C8.5012 16.6562 8.77995 16.25 9.47681 16.25C10.1737 16.25 10.4524 16.6562 11.0099 16.6562C11.7068 16.6562 12.1249 16.1146 12.4036 15.5729C12.6824 15.1667 12.9611 14.7604 13.1005 14.2187C13.1005 14.2187 11.8462 13.8125 11.8462 12.3229C11.8462 11.1042 12.8218 10.5625 12.8218 10.5625C12.2643 9.88542 11.428 9.75 11.1493 9.75Z" fill="#767676"/>
<path d="M18.813 8.125C20.4855 8.125 21.7398 9.20833 21.7398 10.8333C21.7398 12.4583 20.4855 13.6771 18.813 13.6771H17.0011V16.5208H15.6074V8.125H18.813ZM17.0011 12.5938H18.5342C19.6492 12.5938 20.3461 11.9167 20.3461 10.9688C20.3461 9.88542 19.6492 9.34375 18.5342 9.34375H17.0011V12.5938Z" fill="#767676"/>
<path d="M22.0195 14.8906C22.0195 13.8073 22.8558 13.1302 24.3889 13.1302L26.0613 12.9948V12.5885C26.0613 11.9115 25.6432 11.5052 24.807 11.5052C24.1101 11.5052 23.692 11.9115 23.5526 12.3177H22.2983C22.2983 11.2344 23.4133 10.4219 24.807 10.4219C26.3401 10.4219 27.3157 11.2344 27.3157 12.4531V16.651H26.0613V15.7031C25.6432 16.3802 24.9464 16.7865 24.1101 16.7865C22.8558 16.651 22.0195 15.974 22.0195 14.8906ZM26.0613 14.349V13.9427H24.6676C23.8314 13.9427 23.4133 14.349 23.4133 14.8906C23.4133 15.4323 23.8314 15.7031 24.5282 15.7031C25.5039 15.7031 26.0613 15.1615 26.0613 14.349Z" fill="#767676"/>
<path d="M28.5712 18.8229V17.875C28.7105 17.875 28.8499 17.875 28.9893 17.875C29.5468 17.875 29.9649 17.6042 30.1043 17.0625L30.2436 16.6563L28.0137 10.5625H29.4074L30.9405 15.5729L32.4736 10.5625H33.8673L31.6374 16.9271C31.0799 18.4167 30.5224 18.9583 29.1287 18.9583C28.8499 18.9583 28.7105 18.9583 28.5712 18.8229Z" fill="#767676"/>
</svg>
