<svg width="129" height="26" viewBox="0 0 129 26" fill="none" xmlns="http://www.w3.org/2000/svg">
<path d="M3.86842 0H37.1316C38.9561 0 40.5 1.50526 40.5 3.28421V22.7158C40.5 24.4947 38.9561 26 37.1316 26H3.86842C2.04386 26 0.5 24.4947 0.5 22.7158V3.28421C0.5 1.50526 2.04386 0 3.86842 0Z" fill="#2A2C6B"/>
<path d="M20.4322 9.31079L18.748 16.8371H16.7831L18.4673 9.31079H20.4322ZM28.7129 14.1003L29.6953 11.2266L30.2568 14.1003H28.7129ZM30.9585 16.8371H32.7831L31.2392 9.31079H29.555C29.1339 9.31079 28.8532 9.58448 28.7129 9.85816L25.7655 16.8371H27.8708L28.2918 15.7424H30.8182L30.9585 16.8371ZM25.7655 14.374C25.7655 12.3213 22.9585 12.1845 22.9585 11.3634C22.9585 11.0897 23.2392 10.8161 23.8006 10.6792C24.5024 10.6792 25.2041 10.6792 25.7655 10.9529L26.0462 9.31079C25.4848 9.03711 24.7831 9.03711 24.2217 9.03711C22.2568 9.03711 20.8533 9.995 20.8533 11.5003C20.8533 12.595 21.8357 13.1424 22.5375 13.5529C23.2392 13.9634 23.5199 14.1003 23.5199 14.5108C23.5199 15.0582 22.9585 15.195 22.3971 15.195C21.6954 15.195 20.9936 15.0582 20.4322 14.6476L20.1515 16.4266C20.8533 16.7003 21.555 16.8371 22.3971 16.8371C24.362 16.8371 25.7655 15.8792 25.7655 14.374ZM17.6252 9.31079L14.3971 16.8371H12.2919L10.6076 10.8161C10.6076 10.5424 10.4673 10.2687 10.1866 10.1318C9.62519 9.85816 8.92343 9.58448 8.22168 9.44763V9.17395H11.5901C12.0112 9.17395 12.4322 9.44764 12.5726 9.995L13.4147 14.374L15.5199 9.31079H17.6252Z" fill="white"/>
<path d="M10.1856 10.122C9.48386 9.84827 8.92246 9.57459 8.2207 9.43775V9.16406H11.7295C12.1505 9.16406 12.5716 9.43775 12.7119 9.98512L13.4137 14.0904C12.8523 11.6272 10.1856 10.122 10.1856 10.122Z" fill="#F7B600"/>
<path d="M47.8684 0H81.1316C82.9562 0 84.5 1.50525 84.5 3.2842V22.7158C84.5 24.4947 82.9562 26 81.1316 26H47.8684C46.0439 26 44.5 24.4947 44.5 22.7158V3.2842C44.5 1.50525 46.0439 0 47.8684 0Z" fill="#F2F0EB"/>
<path d="M68.6378 6.29688H60.2168V19.8442H68.6378V6.29688Z" fill="#F16223"/>
<path d="M61.2014 13.0055C61.2014 10.4055 62.4646 7.94235 64.5698 6.30024C60.9207 3.5634 55.7277 3.97392 52.64 7.25813C49.5523 10.5423 49.5523 15.6055 52.64 18.8897C55.7277 22.1739 60.9207 22.5844 64.5698 19.8476C62.3242 18.0687 61.2014 15.6055 61.2014 13.0055Z" fill="#E82128"/>
<path d="M77.9021 18.3401V18.0664H78.0424H77.7617H77.9021V18.3401ZM78.4635 18.3401V18.0664H78.3231L78.1828 18.3401L78.0424 18.0664H77.9021V18.3401V18.0664L78.0424 18.3401L78.1828 18.0664L78.4635 18.3401Z" fill="#F49D20"/>
<path d="M78.7467 13.0011C78.7467 16.2853 76.7818 19.2958 73.8345 20.8011C70.7467 22.3064 67.238 21.8958 64.5713 19.8432C68.3608 16.9695 69.0625 11.4958 66.1151 7.80111C65.6941 7.25375 65.1327 6.70639 64.5713 6.29586C67.238 4.24323 70.8871 3.83269 73.8345 5.33795C76.7818 6.70637 78.7467 9.71691 78.7467 13.0011Z" fill="#F49D20"/>
<path d="M91.9855 0.138672H125.016C126.828 0.138672 128.361 1.63589 128.361 3.40534V22.7332C128.361 24.5027 126.828 25.9999 125.016 25.9999H91.9855C90.1737 25.9999 88.6406 24.5027 88.6406 22.7332V3.40534C88.6406 1.63589 90.1737 0.138672 91.9855 0.138672Z" fill="white"/>
<path d="M96.0271 14.564V21.0973H102.856L103.553 20.1445L104.25 21.0973H108.431V19.6001H108.849C109.267 19.6001 109.685 19.6001 110.103 19.464V21.0973H112.891V19.8723L113.866 21.0973H126.828C127.385 21.0973 127.943 20.9612 128.361 20.689V23.4112C127.943 24.9084 126.688 25.8612 125.155 25.8612H91.9855C90.1737 25.8612 88.6406 24.364 88.6406 22.5945V12.3862H90.5918L91.0099 11.4334H91.9855L92.4036 12.3862H107.595V11.1612L108.57 12.3862H112.612V11.8417C113.169 12.2501 113.866 12.5223 114.563 12.3862H116.932L117.351 11.4334H118.326L118.744 12.3862H122.786V11.1612L123.622 12.3862H126.409V5.8528H123.483V7.21392L122.647 5.8528H119.999V7.48614L119.162 5.8528H114.703C114.006 5.8528 113.169 6.12503 112.612 6.53336V5.8528H97.9783L97.4208 7.21392L96.8634 5.7167H93.5185V7.35004L92.6823 5.7167H90.0343L88.78 8.84725V3.26669C88.78 1.49724 90.313 0 92.1248 0H125.295C126.828 0 128.082 0.952785 128.5 2.45001V14.4278H104.389L103.692 15.3806L102.996 14.4278H96.0271V14.564Z" fill="#2A6DB5"/>
<path d="M100.904 16.6084V15.6556H97.1406V20.1473H100.904V19.1945H98.2556V18.3779H100.764V17.4251H98.2556V16.6084H100.904ZM104.248 17.9695L106.06 15.6556H104.667L103.552 17.0167L102.437 15.5195H101.043L102.994 17.8334L101.182 20.1473H102.576L103.691 18.6501L104.806 20.1473H106.2L104.248 17.9695ZM108.848 15.6556H106.339V20.1473H107.454V18.6501H108.848C109.266 18.6501 109.684 18.514 109.963 18.2418C110.241 17.9695 110.52 17.5612 110.381 17.1529C110.381 16.7445 110.241 16.3362 109.963 16.064C109.684 15.7917 109.266 15.5195 108.848 15.6556ZM108.708 17.6973H107.315V16.6084H108.708C108.987 16.6084 109.266 16.8806 109.266 17.1529C109.266 17.4251 109.126 17.6973 108.708 17.6973ZM114.004 18.514C114.84 18.3779 115.398 17.6973 115.259 16.8806C115.119 16.064 114.422 15.5195 113.586 15.6556H111.077V20.1473H112.192V18.514H112.75L114.144 20.1473H115.537L114.004 18.514ZM113.447 17.6973H112.192V16.6084H113.447C113.586 16.6084 113.725 16.6084 113.865 16.7445C114.004 16.8806 114.004 17.0168 114.004 17.1529C114.004 17.289 114.004 17.4251 113.865 17.5612C113.865 17.5612 113.725 17.5612 113.447 17.6973ZM119.579 16.6084V15.6556H115.816V20.1473H119.579V19.1945H116.931V18.3779H119.44V17.4251H116.931V16.6084H119.579ZM122.645 17.4251H121.53C121.391 17.4251 121.251 17.4251 121.112 17.289C120.973 17.1529 120.973 17.0168 121.112 16.8806C121.251 16.7445 121.391 16.6084 121.53 16.7445H123.481L123.899 15.7918H121.53C121.112 15.7918 120.694 15.9279 120.415 16.2001C120.136 16.4723 119.997 16.8807 119.997 17.289C119.997 17.6973 120.136 17.9695 120.415 18.2418C120.694 18.514 121.112 18.6501 121.53 18.514H122.645C122.784 18.514 122.924 18.514 123.063 18.6501C123.203 18.7862 123.203 18.9223 123.063 19.0584C122.924 19.1945 122.784 19.3307 122.645 19.1945H120.276V20.1473H122.645C123.063 20.1473 123.481 20.0112 123.76 19.739C124.039 19.4668 124.178 19.0584 124.178 18.6501C124.178 18.2418 124.039 17.9695 123.76 17.6973C123.481 17.4251 123.063 17.4251 122.645 17.4251ZM125.851 16.6084H127.802L128.22 15.6556H125.851C125.432 15.6556 125.014 15.7917 124.736 16.064C124.457 16.3362 124.317 16.7445 124.317 17.1529C124.317 17.5612 124.457 17.8334 124.736 18.1056C125.014 18.3779 125.432 18.514 125.851 18.3779H126.965C127.105 18.3779 127.244 18.3779 127.384 18.514C127.523 18.6501 127.523 18.7862 127.384 18.9223C127.244 19.0584 127.105 19.1945 126.965 19.0584H124.596V20.0112H126.965C127.662 20.0112 128.22 19.739 128.499 19.0584V17.9695C128.22 17.4251 127.662 17.1529 127.105 17.1529H125.99C125.851 17.1529 125.711 17.1529 125.572 17.0167C125.432 16.8806 125.432 16.7445 125.572 16.6084C125.572 16.6084 125.711 16.6084 125.851 16.6084Z" fill="#2A6DB5"/>
<path d="M92.1236 7.07948H90.5905L88.5 11.5711H89.7543L90.1724 10.6184H92.4023L92.8204 11.5711H94.0747L92.1236 7.07948ZM90.5905 9.66559L91.0086 8.57669L91.2874 7.89614L91.5661 8.57669L91.9842 9.66559H90.5905ZM98.3952 7.07948L97.4196 9.66559L97.2802 10.21L97.1408 9.66559L96.1653 7.07948H94.3535V11.5711H95.4684V8.57669V7.89614L95.7472 8.57669L96.8621 11.5711H97.8377L98.9526 8.57669L99.2314 7.89614V8.57669V11.5711H100.346V7.07948H98.3952ZM104.806 8.03226V7.07948H101.043V11.5711H104.806V10.6184H102.158V9.80171H104.667V8.84891H102.158V8.03226H104.806ZM108.43 9.93781C109.127 9.8017 109.684 9.25727 109.684 8.4406C109.684 8.03226 109.545 7.62392 109.127 7.3517C108.708 7.07948 108.43 6.94336 108.012 6.94336H105.503V11.435H106.618V9.80171H107.175L108.569 11.435H109.963L108.43 9.93781ZM108.012 8.98503H106.757V8.03226H108.012C108.151 8.03226 108.29 8.03224 108.43 8.16836C108.569 8.30447 108.569 8.44058 108.569 8.57669C108.569 8.71281 108.569 8.84892 108.43 8.98503C108.29 9.12115 108.151 8.98503 108.012 8.98503ZM110.241 7.07948V11.5711H111.356V7.07948H110.241ZM114.423 8.03226H115.677V7.07948H114.423C113.865 7.07948 113.168 7.21559 112.75 7.76004C112.332 8.16837 112.053 8.84893 112.193 9.39337C112.193 9.93782 112.332 10.6184 112.75 11.0267C113.168 11.435 113.726 11.7073 114.423 11.7073L114.841 10.7545H114.423C114.144 10.7545 113.726 10.6184 113.447 10.3462C113.168 10.0739 113.168 9.80171 113.168 9.39337C113.168 9.12115 113.308 8.71282 113.447 8.4406C113.726 8.16837 114.004 8.03226 114.423 8.03226ZM118.325 7.07948H116.792L114.841 11.5711H116.095L116.513 10.6184H118.743L119.161 11.5711H120.415L118.325 7.07948ZM116.792 9.66559L117.21 8.57669L117.489 7.89614L117.767 8.57669L118.186 9.66559H116.792ZM123.9 7.07948V9.52947V10.0739L123.621 9.52947L121.948 7.07948H120.555V11.5711H121.67V8.98503V8.4406L121.948 8.98503L123.621 11.5711H125.015V7.07948H123.9Z" fill="#2A6DB5"/>
</svg>
