<svg width="40" height="26" viewBox="0 0 40 26" fill="none" xmlns="http://www.w3.org/2000/svg">
<path d="M3.48561 0.136719H36.5169C38.3288 0.136719 39.8619 1.62629 39.8619 3.38671V22.6159C39.8619 24.3763 38.3288 25.8659 36.5169 25.8659H3.48561C1.67376 25.8659 0.140625 24.3763 0.140625 22.6159V3.38671C0.140625 1.62629 1.67376 0.136719 3.48561 0.136719Z" fill="white"/>
<path d="M36.5157 26H3.48433C1.5331 26 0 24.5104 0 22.6146V3.38541C0 1.48958 1.5331 0 3.48433 0H36.5157C38.4669 0 40 1.48958 40 3.38541V22.6146C40 24.5104 38.4669 26 36.5157 26ZM3.48433 0.27085C1.67248 0.27085 0.278678 1.625 0.278678 3.38541V22.6146C0.278678 24.375 1.67248 25.7292 3.48433 25.7292H36.5157C38.3275 25.7292 39.7213 24.375 39.7213 22.6146V3.38541C39.7213 1.625 38.3275 0.27085 36.5157 0.27085H3.48433Z" fill="#C4C4C4"/>
<path d="M17.0019 20.4427L17.2806 18.6823H16.5838H13.5176L15.6082 5.6823V5.54688H15.7476H20.9044C22.5768 5.54688 23.8312 5.95313 24.3887 6.63021C24.6674 6.90104 24.8067 7.3073 24.9461 7.71355C25.0855 8.1198 25.0855 8.66146 24.9461 9.06771V9.47395L25.2249 9.60937C25.5036 9.74479 25.643 9.88021 25.7824 10.0156C26.0611 10.2865 26.2005 10.6927 26.2005 11.099C26.2005 11.6406 26.2005 12.0469 26.2005 12.5885C26.0611 13.1302 25.9217 13.8073 25.5036 14.3489C25.2249 14.7552 24.9461 15.1615 24.528 15.4323C24.1099 15.7031 23.6918 15.8385 23.1343 15.9739C22.5768 16.1094 22.0193 16.1094 21.4618 16.1094H21.0437C20.765 16.1094 20.4862 16.2448 20.2075 16.3802C19.9288 16.5156 19.7893 16.7864 19.7893 17.0573V17.1927L19.2319 20.3073V20.4427H17.0019Z" fill="#767676"/>
<path d="M25.6427 9.06641V9.33724C24.9458 12.7226 22.5765 13.9414 19.6497 13.9414H18.1166C17.6985 13.9414 17.4197 14.2122 17.4197 14.4831L16.5835 19.2226L16.3047 20.5768C16.3047 20.7122 16.3047 20.8476 16.4441 20.8476C16.5835 20.9831 16.5835 20.983 16.7229 20.983H19.3709C19.6497 20.983 19.9284 20.7122 20.0678 20.4414V20.306L20.6253 17.1914V17.056C20.6253 16.7851 20.904 16.5143 21.3222 16.5143H21.7403C24.3883 16.5143 26.3396 15.431 26.8971 12.4518C27.1758 11.3685 27.0364 10.2851 26.3395 9.47264C26.2002 9.33722 25.9214 9.20182 25.6427 9.06641Z" fill="#CBCBCB"/>
<path d="M24.9472 8.80208L24.6685 8.66667H24.3898C23.9717 8.66667 23.5535 8.53125 23.1354 8.53125H19.0936C18.9542 8.53125 18.9543 8.53125 18.8149 8.53125C18.6756 8.66667 18.5361 8.80209 18.3967 8.9375L17.5605 14.2187V14.3542C17.5605 13.9479 17.9787 13.8125 18.2574 13.8125H19.7905C22.7173 13.8125 25.0867 12.5937 25.7835 9.20833V8.9375C25.6442 8.80209 25.3654 8.80209 25.226 8.66667L24.9472 8.80208Z" fill="#111111" fill-opacity="0.4"/>
<path d="M18.2571 9.07162C18.2571 8.80079 18.3965 8.66537 18.6752 8.66537C18.8146 8.66537 18.8146 8.66537 18.954 8.66537H22.9958C23.4139 8.66537 23.832 8.66536 24.2501 8.80077H24.5289L24.8076 8.9362H24.947C25.0864 8.9362 25.3651 9.07161 25.5045 9.20703C25.7833 8.25911 25.5045 7.17579 24.8076 6.36329C23.9714 5.55079 22.5777 5.14453 20.9052 5.14453H15.7484C15.3303 5.14453 15.0515 5.41538 15.0515 5.68621L12.9609 18.8216C12.9609 18.957 12.9609 19.0925 13.1003 19.2279C13.2396 19.3633 13.2397 19.3633 13.379 19.3633H16.5846L17.4209 14.4883L18.2571 9.07162Z" fill="#767676"/>
</svg>
