<svg width="40" height="26" viewBox="0 0 40 26" fill="none" xmlns="http://www.w3.org/2000/svg">
<rect width="40" height="26" rx="4" fill="white"/>
<path d="M34.6179 10.0547L32.4807 18.2236L32.4727 18.2396H34.1417L36.2869 10.0547H34.6179Z" fill="#767676"/>
<path d="M8.14548 14.7018C7.92535 14.8179 7.62517 14.8859 7.34099 14.8859C6.74063 14.8859 6.40043 14.7898 6.36441 14.3055V14.2735C6.36441 14.2535 6.36041 14.2335 6.36041 14.2135V12.8046L6.36441 12.6365V11.6399H6.36041V11.2157L6.36441 11.0476V10.087L4.87552 10.2831C5.88412 10.087 6.46047 9.29053 6.46047 8.49806V8.00977H4.78746V10.2951L4.69141 10.3232V14.5577C4.74744 15.7464 5.53191 16.4548 6.81668 16.4548C7.27295 16.4548 7.77325 16.3508 8.15748 16.1787L8.16549 16.1747V14.6898L8.14548 14.7018Z" fill="#767676"/>
<path d="M8.40966 9.74609L3.71484 10.4705V11.6592L8.40966 10.9348V9.74609Z" fill="#767676"/>
<path d="M8.40966 11.4883L3.71484 12.2127V13.3494L8.40966 12.625V11.4883Z" fill="#767676"/>
<path d="M13.6725 12.0369C13.6045 10.7161 12.78 9.93164 11.4352 9.93164C10.6627 9.93164 10.0223 10.2318 9.59008 10.7962C9.15782 11.3605 8.92969 12.189 8.92969 13.1936C8.92969 14.1982 9.15782 15.0307 9.59008 15.591C10.0223 16.1554 10.6627 16.4556 11.4352 16.4556C12.78 16.4556 13.6085 15.6671 13.6725 14.3383V16.3315H15.3455V10.0677L13.6725 10.3239V12.0369ZM13.7606 13.1936C13.7606 14.3663 13.1442 15.1228 12.1956 15.1228C11.2151 15.1228 10.6307 14.4023 10.6307 13.1936C10.6307 11.9809 11.2151 11.2524 12.1956 11.2524C12.6719 11.2524 13.0722 11.4365 13.3483 11.7888C13.6165 12.137 13.7606 12.6213 13.7606 13.1936Z" fill="#767676"/>
<path d="M20.2248 9.9311C18.876 9.9311 18.0515 10.7156 17.9875 12.0404V8.24609L16.3145 8.50225V16.3309H17.9875V14.3377C18.0515 15.6665 18.88 16.455 20.2248 16.455C21.8018 16.455 22.7423 15.2343 22.7423 13.1931C22.7423 11.1518 21.8018 9.9311 20.2248 9.9311ZM19.4643 15.1222C18.5118 15.1222 17.8994 14.3658 17.8994 13.1931C17.8994 12.6207 18.0435 12.1364 18.3117 11.7922C18.5878 11.44 18.9881 11.2559 19.4643 11.2559C20.4449 11.2559 21.0293 11.9803 21.0293 13.1971C21.0293 14.4018 20.4449 15.1222 19.4643 15.1222Z" fill="#767676"/>
<path d="M27.2932 9.9311C25.9444 9.9311 25.1199 10.7156 25.0558 12.0404V8.24609L23.3828 8.50225V16.3309H25.0558V14.3377C25.1199 15.6665 25.9484 16.455 27.2932 16.455C28.8701 16.455 29.8107 15.2343 29.8107 13.1931C29.8107 11.1518 28.8701 9.9311 27.2932 9.9311ZM26.5367 15.1222C25.5841 15.1222 24.9718 14.3658 24.9718 13.1931C24.9718 12.6207 25.1159 12.1364 25.384 11.7922C25.6602 11.44 26.0604 11.2559 26.5367 11.2559C27.5173 11.2559 28.1016 11.9803 28.1016 13.1971C28.1016 14.4018 27.5173 15.1222 26.5367 15.1222Z" fill="#767676"/>
<path d="M29.8145 10.0547H31.5995L33.0524 16.3224H31.4514L29.8145 10.0547Z" fill="#767676"/>
<path d="M36.5157 26H3.48432C1.5331 26 0 24.5104 0 22.6146V3.38542C0 1.48958 1.5331 0 3.48432 0H36.5157C38.3275 0 40 1.48958 40 3.38542V22.6146C40 24.5104 38.3275 26 36.5157 26ZM3.48432 0.270833C1.67247 0.270833 0.278746 1.625 0.278746 3.38542V22.6146C0.278746 24.375 1.67247 25.7292 3.48432 25.7292H36.5157C38.3275 25.7292 39.7213 24.375 39.7213 22.6146V3.38542C39.7213 1.625 38.3275 0.270833 36.5157 0.270833H3.48432Z" fill="#C4C4C4"/>
</svg>
