<svg width="40" height="26" viewBox="0 0 40 26" fill="none" xmlns="http://www.w3.org/2000/svg">
<path d="M3.48557 0.136719H36.5169C38.3288 0.136719 39.8619 1.6263 39.8619 3.38672V22.6159C39.8619 24.3763 38.3288 25.8659 36.5169 25.8659H3.48557C1.67373 25.8659 0.140625 24.3763 0.140625 22.6159V3.38672C0.140625 1.6263 1.67373 0.136719 3.48557 0.136719Z" fill="white"/>
<path d="M15.0671 15.0676C14.3335 15.9356 13.3387 16.3696 12.0827 16.3696C11.5992 16.3696 11.1393 16.2915 10.703 16.1352C10.2695 15.9761 9.88605 15.7486 9.5526 15.4527C9.22192 15.1541 8.96349 14.7954 8.77731 14.3767C8.59114 13.9581 8.49805 13.4989 8.49805 12.9993C8.49805 12.3657 8.6481 11.7949 8.94821 11.2869C9.24832 10.7761 9.6568 10.3783 10.1737 10.0936C10.6933 9.80615 11.2671 9.6624 11.8951 9.6624C12.4675 9.6624 13.0164 9.77824 13.5415 10.0099C14.0695 10.2388 14.5447 10.5612 14.9671 10.9771L14.2751 11.5674C13.9139 11.2604 13.5429 11.0231 13.1622 10.8556C12.7843 10.6854 12.3786 10.6002 11.9451 10.6002C11.4783 10.6002 11.0517 10.7007 10.6655 10.9017C10.2792 11.1027 9.97358 11.3888 9.7485 11.76C9.52342 12.1284 9.41088 12.5471 9.41088 13.016C9.41088 13.5156 9.53592 13.9483 9.78601 14.3139C10.0361 14.6768 10.3709 14.9531 10.7905 15.1429C11.2101 15.3327 11.6603 15.4276 12.141 15.4276C12.3883 15.4276 12.612 15.4081 12.8121 15.369C13.015 15.3271 13.2123 15.2615 13.404 15.1722C13.5985 15.0801 13.7791 14.9713 13.9459 14.8457C14.1154 14.7173 14.2849 14.5679 14.4544 14.3977L15.0671 15.0676Z" fill="#767676"/>
<path d="M23.2867 13.0244C23.2867 13.4822 23.195 13.9176 23.0116 14.3307C22.831 14.7438 22.5809 15.1024 22.2614 15.4067C21.9418 15.7109 21.5736 15.9482 21.1568 16.1184C20.74 16.2859 20.3065 16.3696 19.8563 16.3696C19.2255 16.3696 18.6476 16.2175 18.1224 15.9133C17.5972 15.6063 17.1845 15.1904 16.8844 14.6656C16.5843 14.1409 16.4343 13.5603 16.4343 12.9239C16.4343 12.3126 16.5913 11.7558 16.9053 11.2534C17.222 10.7482 17.643 10.3518 18.1682 10.0643C18.6962 9.77405 19.2617 9.62891 19.8647 9.62891C20.4816 9.62891 21.0526 9.77824 21.5778 10.0769C22.103 10.3756 22.5184 10.7873 22.8241 11.312C23.1325 11.834 23.2867 12.4048 23.2867 13.0244ZM22.3656 12.9742C22.3656 12.5164 22.2516 12.1047 22.0238 11.7391C21.7987 11.3734 21.4944 11.0873 21.111 10.8808C20.7275 10.6742 20.3093 10.5709 19.8563 10.5709C19.3923 10.5709 18.9685 10.6756 18.585 10.8849C18.2016 11.0943 17.8987 11.3874 17.6764 11.7642C17.4568 12.141 17.3471 12.5638 17.3471 13.0328C17.3471 13.4794 17.4624 13.8869 17.693 14.2553C17.9265 14.621 18.2377 14.9085 18.6267 15.1178C19.0157 15.3243 19.4284 15.4276 19.8647 15.4276C20.2037 15.4276 20.5232 15.3662 20.8233 15.2434C21.1262 15.1206 21.3944 14.9461 21.6278 14.72C21.864 14.4912 22.046 14.2288 22.1738 13.9329C22.3017 13.6371 22.3656 13.3175 22.3656 12.9742Z" fill="#767676"/>
<path d="M31.498 12.9909C31.498 13.4291 31.4133 13.8576 31.2438 14.2762C31.0743 14.6921 30.8436 15.055 30.5519 15.3648C30.2712 15.6718 29.9711 15.891 29.6515 16.0221C29.332 16.1505 28.9555 16.2147 28.522 16.2147H25.4208V9.81731H28.497C28.9249 9.81731 29.3223 9.89965 29.6891 10.0643C30.0559 10.229 30.374 10.4579 30.6436 10.751C30.9159 11.0413 31.1257 11.3804 31.273 11.7684C31.423 12.1535 31.498 12.5611 31.498 12.9909ZM30.5602 13.0579C30.5602 12.7509 30.5144 12.4564 30.4227 12.1745C30.331 11.8898 30.1962 11.6414 30.0183 11.4292C29.8433 11.2171 29.6265 11.051 29.3681 10.931C29.1125 10.811 28.8249 10.751 28.5053 10.751H26.3337V15.2811H28.522C28.9249 15.2811 29.2806 15.1806 29.589 14.9796C29.8975 14.7759 30.1364 14.5051 30.3059 14.1674C30.4755 13.8269 30.5602 13.457 30.5602 13.0579Z" fill="#767676"/>
<path d="M36.5157 26H3.48432C1.5331 26 0 24.5104 0 22.6146V3.38542C0 1.48958 1.5331 0 3.48432 0H36.5157C38.3275 0 40 1.48958 40 3.38542V22.6146C40 24.5104 38.3275 26 36.5157 26ZM3.48432 0.270833C1.67247 0.270833 0.278746 1.625 0.278746 3.38542V22.6146C0.278746 24.375 1.67247 25.7292 3.48432 25.7292H36.5157C38.3275 25.7292 39.7213 24.375 39.7213 22.6146V3.38542C39.7213 1.625 38.3275 0.270833 36.5157 0.270833H3.48432Z" fill="#C4C4C4"/>
</svg>
