<svg width="40" height="26" viewBox="0 0 40 26" fill="none" xmlns="http://www.w3.org/2000/svg">
<path d="M3.48552 0.136719H36.5169C38.3287 0.136719 39.8618 1.62629 39.8618 3.38671V22.6159C39.8618 24.3763 38.3287 25.8659 36.5169 25.8659H3.48552C1.67367 25.8659 0.140625 24.3763 0.140625 22.6159V3.38671C0.279998 1.62629 1.67367 0.136719 3.48552 0.136719Z" fill="white"/>
<path d="M36.5157 26H3.48432C1.5331 26 0 24.5104 0 22.6146V3.38541C0 1.48958 1.5331 0 3.48432 0H36.5157C38.4669 0 40 1.48958 40 3.38541V22.6146C40 24.5104 38.4669 26 36.5157 26ZM3.48432 0.27085C1.67247 0.27085 0.278763 1.625 0.278763 3.38541V22.6146C0.278763 24.375 1.67247 25.7292 3.48432 25.7292H36.5157C38.3275 25.7292 39.7212 24.375 39.7212 22.6146V3.38541C39.7212 1.625 38.3275 0.27085 36.5157 0.27085H3.48432Z" fill="#C4C4C4"/>
<path d="M25.1122 13.7056L25.4116 13.7932C25.3916 13.8759 25.3617 13.944 25.3168 13.9975C25.2719 14.051 25.222 14.0948 25.1571 14.1191C25.0923 14.1483 25.0124 14.1629 24.9127 14.1629C24.7929 14.1629 24.6981 14.1483 24.6183 14.1142C24.5434 14.0802 24.4786 14.0218 24.4237 13.9342C24.3688 13.8515 24.3389 13.7397 24.3389 13.6083C24.3389 13.4332 24.3888 13.297 24.4836 13.1997C24.5784 13.1024 24.7181 13.0586 24.8927 13.0586C25.0324 13.0586 25.1372 13.0878 25.217 13.1413C25.2968 13.1948 25.3567 13.2775 25.3916 13.3943L25.0923 13.4575C25.0823 13.4234 25.0723 13.3991 25.0573 13.3845C25.0374 13.3602 25.0174 13.3407 24.9875 13.3262C24.9576 13.3116 24.9276 13.3067 24.8977 13.3067C24.8228 13.3067 24.763 13.3359 24.7231 13.3991C24.6931 13.4429 24.6781 13.5159 24.6781 13.6083C24.6781 13.7251 24.6981 13.8078 24.733 13.8515C24.768 13.8953 24.8228 13.9196 24.8877 13.9196C24.9526 13.9196 25.0025 13.9002 25.0324 13.8661C25.0723 13.8224 25.0973 13.7737 25.1122 13.7056Z" fill="#767676"/>
<path d="M25.5332 13.6093C25.5332 13.4341 25.5831 13.2979 25.6829 13.2006C25.7827 13.1033 25.9224 13.0547 26.102 13.0547C26.2866 13.0547 26.4263 13.1033 26.5261 13.1958C26.6259 13.2931 26.6758 13.4244 26.6758 13.5995C26.6758 13.726 26.6558 13.8282 26.6109 13.906C26.566 13.9838 26.5061 14.0471 26.4213 14.0909C26.3415 14.1347 26.2367 14.159 26.117 14.159C25.9922 14.159 25.8924 14.1395 25.8076 14.1006C25.7278 14.0617 25.6629 14.0033 25.608 13.9157C25.5532 13.8282 25.5332 13.7357 25.5332 13.6093ZM25.8725 13.6093C25.8725 13.7163 25.8924 13.7941 25.9324 13.8428C25.9723 13.8914 26.0272 13.9157 26.102 13.9157C26.1768 13.9157 26.2317 13.8914 26.2716 13.8476C26.3116 13.799 26.3315 13.7163 26.3315 13.5995C26.3315 13.4974 26.3116 13.4244 26.2667 13.3806C26.2267 13.332 26.1669 13.3125 26.097 13.3125C26.0272 13.3125 25.9723 13.3368 25.9324 13.3855C25.8924 13.4244 25.8725 13.5022 25.8725 13.6093Z" fill="#767676"/>
<path d="M26.8449 13.0742H27.289L27.4586 13.7261L27.6283 13.0742H28.0723V14.1445H27.7929V13.3272L27.5784 14.1445H27.3289L27.1144 13.3272V14.1445H26.835V13.0742H26.8449Z" fill="#767676"/>
<path d="M28.2939 13.0742H28.8578C28.9825 13.0742 29.0723 13.1034 29.1322 13.1618C29.192 13.2202 29.222 13.298 29.222 13.405C29.222 13.512 29.1871 13.5996 29.1222 13.658C29.0573 13.7212 28.9526 13.7504 28.8178 13.7504H28.6332V14.1493H28.2939V13.0742ZM28.6332 13.5315H28.718C28.7829 13.5315 28.8278 13.5218 28.8578 13.4974C28.8827 13.4731 28.8977 13.4488 28.8977 13.4147C28.8977 13.3807 28.8877 13.3515 28.8627 13.3272C28.8378 13.3029 28.7979 13.2931 28.733 13.2931H28.6382V13.5315H28.6332Z" fill="#767676"/>
<path d="M29.4014 13.0742H29.7406V13.8818H30.2695V14.1445H29.4014V13.0742Z" fill="#767676"/>
<path d="M30.4355 13.0742H30.7748V14.1445H30.4355V13.0742Z" fill="#767676"/>
<path d="M31.6955 13.9654H31.3113L31.2564 14.1405H30.9121L31.3262 13.0703H31.6955L32.1096 14.1405H31.7553L31.6955 13.9654ZM31.6256 13.7368L31.5059 13.3525L31.3861 13.7368H31.6256Z" fill="#767676"/>
<path d="M32.2139 13.0742H32.5282L32.9423 13.6677V13.0742H33.2617V14.1445H32.9423L32.5332 13.5558V14.1445H32.2139V13.0742Z" fill="#767676"/>
<path d="M33.4092 13.0742H34.442V13.3369H34.0977V14.1445H33.7584V13.3369H33.4142V13.0742H33.4092Z" fill="#767676"/>
<path d="M21.0334 14.7033L22.0157 14.4019L21.6966 13.7115C21.4622 13.9984 21.2279 14.3678 21.0334 14.7033ZM20.6993 11.5481L18.7747 7.36719L4.68359 8.14504L8.58781 18.5293L16.102 16.2201C15.6234 15.5492 15.4488 14.7519 16.0023 14.363C16.6206 13.9254 17.553 14.431 18.1464 15.1457C18.7198 14.2123 20.3304 12.0391 20.6993 11.5481Z" fill="#767676"/>
<path d="M18.3366 10.3899C18.925 10.3899 19.4036 9.95231 19.4036 9.40782C19.4036 8.86332 18.925 8.42578 18.3366 8.42578C17.7482 8.42578 17.2695 8.86332 17.2695 9.40782C17.2695 9.94745 17.7482 10.3899 18.3366 10.3899ZM17.464 10.8128H19.2092V15.2611H17.464V10.8128Z" fill="#FEFEFE"/>
<path d="M16.5996 12.1091C16.6145 12.114 16.6245 12.1091 16.6245 12.0945V10.9667C16.6245 10.9521 16.6145 10.9375 16.5996 10.9278C16.5996 10.9278 16.3702 10.7819 15.6721 10.743C15.6372 10.7236 15.0239 10.7187 14.8594 10.743C12.3164 10.9423 12.2217 12.7363 12.2217 12.814V13.2516C12.2217 13.3051 12.2217 15.1379 14.8594 15.2983C15.1187 15.3178 15.6223 15.2983 15.6721 15.2983C16.2805 15.2983 16.6993 15.1184 16.6993 15.1184C16.7143 15.1136 16.7242 15.099 16.7242 15.0844V14.0294C16.7242 14.0149 16.7143 14.01 16.7043 14.0197C16.7043 14.0197 16.5148 14.1656 15.6871 14.2482C15.4527 14.2725 15.3381 14.2628 15.2533 14.2482C14.0766 14.0537 14.0217 13.2176 14.0217 13.2176C14.0217 13.203 14.0167 13.1787 14.0167 13.1689V12.8481C14.0167 12.8335 14.0167 12.8092 14.0217 12.7995C14.0217 12.7995 14.1015 11.9001 15.2533 11.8028H15.6871C16.1907 11.866 16.5996 12.1091 16.5996 12.1091Z" fill="#FEFEFE"/>
<path d="M7.37598 15.2485C7.37598 15.2631 7.38595 15.2728 7.40091 15.2728H9.10121C9.11617 15.2728 9.12614 15.2631 9.12614 15.2485V13.9553C9.12614 13.9407 9.13611 13.931 9.15107 13.931C9.15107 13.931 11.8686 14.1206 11.8686 12.3461C11.8686 10.9412 10.1633 10.7904 9.60482 10.8148C9.59484 10.8148 7.40091 10.8148 7.40091 10.8148C7.38595 10.8148 7.37598 10.8245 7.37598 10.8391V15.2485ZM9.09622 12.9441V11.7822H9.51506C9.51506 11.7822 10.1184 11.8065 10.1683 12.21C10.1782 12.2392 10.1782 12.4385 10.1683 12.4482C10.0885 12.9198 9.56493 12.9441 9.56493 12.9441H9.09622Z" fill="#FEFEFE"/>
<path d="M18.3828 17.4071C18.5225 17.4071 18.6322 17.4071 18.8117 17.3293C19.43 17.0133 21.5192 12.0399 23.7231 10.5085C23.738 10.4988 23.753 10.4842 23.763 10.4696C23.7779 10.4502 23.7779 10.4307 23.7779 10.4307C23.7779 10.4307 23.7779 10.3287 23.4538 10.3287C21.4942 10.2752 19.4549 14.286 18.3828 15.8708C18.3679 15.8903 18.2981 15.8708 18.2981 15.8708C18.2981 15.8708 17.5801 15.0444 16.9568 14.7284C16.9418 14.7235 16.872 14.6992 16.7972 14.7041C16.7474 14.7041 16.4582 14.7624 16.3235 14.8985C16.164 15.0638 16.169 15.1562 16.169 15.3555C16.169 15.3701 16.1789 15.4382 16.1989 15.4722C16.3535 15.7347 17.0465 16.6681 17.62 17.1835C17.7047 17.2467 17.8393 17.4071 18.3828 17.4071Z" fill="#CBCBCB"/>
<path d="M24.3027 9.00391H25.9332C26.2573 9.00391 26.5166 9.04766 26.7111 9.13031C26.9105 9.21782 27.0751 9.33935 27.1997 9.49492C27.3294 9.65536 27.4241 9.8401 27.479 10.0491C27.5388 10.2582 27.5687 10.4818 27.5687 10.72C27.5687 11.0895 27.5238 11.3764 27.4391 11.5805C27.3543 11.7847 27.2346 11.9549 27.0801 12.0959C26.9255 12.232 26.7609 12.3244 26.5864 12.373C26.3471 12.4362 26.1277 12.4653 25.9332 12.4653H24.3027V9.00391ZM25.3997 9.78662V11.6778H25.669C25.8983 11.6778 26.0629 11.6535 26.1576 11.6048C26.2523 11.5562 26.3321 11.4687 26.387 11.3472C26.4418 11.2256 26.4717 11.0215 26.4717 10.7443C26.4717 10.3749 26.4119 10.1269 26.2872 9.9908C26.1626 9.85468 25.9631 9.78662 25.6739 9.78662H25.3997Z" fill="#767676"/>
<path d="M27.8711 11.3236L28.9182 11.2604C28.9431 11.4257 28.988 11.5521 29.0578 11.6396C29.1725 11.7806 29.3321 11.8486 29.5415 11.8486C29.6961 11.8486 29.8207 11.8146 29.9055 11.7417C29.9902 11.6687 30.0351 11.5861 30.0351 11.4937C30.0351 11.4062 29.9952 11.3236 29.9154 11.2507C29.8357 11.1777 29.6462 11.1145 29.352 11.0513C28.8683 10.9444 28.5293 10.8034 28.3199 10.6284C28.1104 10.4534 28.0107 10.2297 28.0107 9.95747C28.0107 9.7776 28.0656 9.6123 28.1703 9.45187C28.275 9.29144 28.4345 9.1699 28.6489 9.07753C28.8634 8.98516 29.1526 8.94141 29.5215 8.94141C29.9753 8.94141 30.3243 9.02405 30.5587 9.18935C30.798 9.35464 30.9376 9.61716 30.9825 9.97692L29.9454 10.0353C29.9154 9.87969 29.8606 9.76787 29.7708 9.69495C29.6811 9.62203 29.5614 9.58799 29.4069 9.58799C29.2772 9.58799 29.1825 9.6123 29.1176 9.66578C29.0528 9.71926 29.0229 9.78246 29.0229 9.86024C29.0229 9.91372 29.0478 9.9672 29.1027 10.011C29.1526 10.0547 29.2772 10.0985 29.4717 10.1374C29.9503 10.2394 30.2944 10.3415 30.5038 10.4436C30.7132 10.5457 30.8628 10.677 30.9576 10.8277C31.0523 10.9784 31.0972 11.1534 31.0972 11.343C31.0972 11.5667 31.0324 11.7708 30.9077 11.9556C30.783 12.1452 30.6035 12.2862 30.3792 12.3834C30.1548 12.4806 29.8656 12.5292 29.5215 12.5292C28.9182 12.5292 28.4994 12.4174 28.265 12.1889C28.0356 11.9604 27.906 11.6736 27.8711 11.3236Z" fill="#767676"/>
<path d="M31.3789 11.3236L32.426 11.2604C32.4509 11.4257 32.4958 11.5521 32.5656 11.6396C32.6803 11.7806 32.8399 11.8486 33.0493 11.8486C33.2039 11.8486 33.3285 11.8146 33.4133 11.7417C33.4981 11.6687 33.5429 11.5861 33.5429 11.4937C33.5429 11.4062 33.503 11.3236 33.4233 11.2506C33.3435 11.1777 33.154 11.1145 32.8598 11.0513C32.3762 10.9444 32.0371 10.8034 31.8277 10.6284C31.6232 10.4534 31.5185 10.2297 31.5185 9.95747C31.5185 9.7776 31.5734 9.6123 31.6781 9.45187C31.7828 9.29144 31.9423 9.1699 32.1568 9.07753C32.3712 8.98516 32.6604 8.94141 33.0293 8.94141C33.4831 8.94141 33.8321 9.02405 34.0665 9.18935C34.3058 9.35464 34.4454 9.61716 34.4903 9.97692L33.4532 10.0353C33.4233 9.87969 33.3684 9.76787 33.2787 9.69495C33.1889 9.62203 33.0692 9.58799 32.9147 9.58799C32.785 9.58799 32.6903 9.6123 32.6255 9.66578C32.5606 9.71926 32.5307 9.78246 32.5307 9.86024C32.5307 9.91372 32.5557 9.9672 32.6105 10.011C32.6604 10.0547 32.785 10.0985 32.9795 10.1374C33.4582 10.2394 33.8022 10.3415 34.0116 10.4436C34.2211 10.5457 34.3706 10.677 34.4654 10.8277C34.5601 10.9784 34.605 11.1534 34.605 11.343C34.605 11.5667 34.5402 11.7708 34.4155 11.9556C34.2909 12.1452 34.1114 12.2862 33.887 12.3834C33.6626 12.4806 33.3734 12.5292 33.0293 12.5292C32.426 12.5292 32.0072 12.4174 31.7728 12.1889C31.5385 11.9604 31.4088 11.6736 31.3789 11.3236Z" fill="#767676"/>
</svg>
