<svg width="40" height="26" viewBox="0 0 40 26" fill="none" xmlns="http://www.w3.org/2000/svg">
<path d="M3.48561 0.136719H36.5169C38.3288 0.136719 39.8619 1.62629 39.8619 3.38671V22.6159C39.8619 24.3763 38.3288 25.8659 36.5169 25.8659H3.48561C1.67376 25.8659 0.140625 24.3763 0.140625 22.6159V3.38671C0.140625 1.62629 1.67376 0.136719 3.48561 0.136719Z" fill="white"/>
<g clip-path="url(#clip0_38321_24743)">
<path d="M16.8125 10.563H14.25V9.62047H16.75V8.64547H14.25V7.80047H16.8125V6.79297H13.1562V11.5705H16.8125V10.563Z" fill="#767676"/>
<path d="M11.2188 11.5705H12.3125V6.79297H10.5L9.1875 10.043L7.75 6.79297H5.96875V11.3105L4.09375 6.79297H2.46875L0.5 11.5705H1.6875L2.125 10.498H4.40625L4.84375 11.5705H7.0625V7.83297L8.65625 11.5705H9.625L11.2188 7.83297V11.5705ZM2.5 9.49047L3.25 7.57297L4 9.49047H2.5Z" fill="#767676"/>
<path d="M26.4687 11.5705H27.75L28.1562 10.498H30.4063L30.8437 11.5705H33.0938V7.99547L35.1875 11.5705H36.75H36.7812V6.79297H35.6562V10.108L33.7188 6.79297H32.0312V11.343L30.1875 6.82547H28.5313L26.9688 10.5955H26.4687C26.1875 10.5955 25.875 10.5305 25.7188 10.3355C25.5 10.0755 25.4063 9.71797 25.4063 9.19797C25.4063 8.71047 25.5313 8.32047 25.7188 8.12547C25.9375 7.89797 26.1563 7.83297 26.5625 7.83297H27.5938V6.82547H26.5313C25.7813 6.82547 25.2188 6.98797 24.875 7.37797C24.4063 7.86547 24.2812 8.51547 24.2812 9.23047C24.2812 10.108 24.5 10.628 24.875 11.0505C25.25 11.4405 25.9375 11.5705 26.4687 11.5705ZM29.3438 7.57297L30.0938 9.49047H28.5938L29.3438 7.57297Z" fill="#767676"/>
<path d="M18.6563 9.78297H19.8438C20.25 9.78297 20.5 9.81547 20.6563 9.97797C20.875 10.2055 20.8438 10.628 20.8438 10.9205V11.538H21.9375V10.5955C21.9375 10.173 21.9063 9.94547 21.75 9.71797C21.6563 9.58797 21.4688 9.42547 21.2188 9.32797C21.5 9.23047 22 8.80797 22 8.06047C22 7.54047 21.7813 7.21547 21.4375 7.02047C21.0625 6.82547 20.6563 6.79297 20.0938 6.79297H17.5625V11.5055H18.6563V9.78297ZM18.6875 7.76797H20.0313C20.2188 7.76797 20.4375 7.76797 20.5625 7.86547C20.7188 7.93047 20.7813 8.09297 20.7813 8.28797C20.7813 8.51547 20.6875 8.67797 20.5625 8.74297C20.4063 8.84047 20.2188 8.84047 20.0313 8.84047H18.6875V7.76797Z" fill="#767676"/>
<path d="M33.9063 16.8342H33.3125C33.125 16.8342 33 16.8017 32.875 16.7692C32.7187 16.7042 32.625 16.6067 32.625 16.4117C32.625 16.2492 32.6563 16.1192 32.7813 16.0542C32.875 15.9567 33 15.9567 33.2188 15.9567H35.2187V14.9492H33.0312C31.875 14.9492 31.4688 15.6967 31.4688 16.3792C31.4688 17.9067 32.75 17.8417 33.7813 17.8742C34 17.8742 34.0938 17.9067 34.1875 17.9717C34.25 18.0367 34.3125 18.1667 34.3125 18.2967C34.3125 18.4592 34.25 18.5567 34.1875 18.6217C34.0938 18.7192 33.9688 18.7517 33.75 18.7517H31.625V19.7592H33.7813C34.875 19.7592 35.5 19.3042 35.5 18.2642C35.5 17.7767 35.375 17.4842 35.1563 17.2567C34.9063 16.9967 34.5313 16.8992 33.9063 16.8342Z" fill="#767676"/>
<path d="M35.3122 0H4.56218C2.06218 0 -0.500977 1.5 -0.000320271 4.745V20.085C-0.000320271 23.335 -0.000320435 26 5.68718 26H34.4997C39.5934 26 39.9997 23.4325 39.9997 20.28V4.875C39.9997 2.1775 38.999 0 35.3122 0ZM7.84343 11.7V12.5125H4.12468L3.71843 11.44H2.78093L2.34343 12.5125H-0.000320271L-0.000976562 10L1.78093 5.85H4.65593L5.03093 6.63V5.85H8.40593L9.12468 7.5725L9.84343 5.85H20.4997C20.9997 5.85 21.4372 5.9475 21.7497 6.24V5.85H24.6559V6.24C25.1559 5.9475 25.7809 5.85 26.4997 5.85H30.7184L31.1247 6.63V5.85H34.2497L34.6872 6.63V5.85H37.7497V12.5125H34.6559L34.0622 11.505V12.5125H30.2184L29.8122 11.44H28.8747L28.4372 12.5125H26.4372C25.6559 12.5125 25.0622 12.3175 24.6872 12.09V12.5125H19.9372V10.985C19.9372 10.79 19.9059 10.7575 19.7809 10.7575H19.5934V12.5125H10.4059V11.7L10.0934 12.5125H8.18718L7.84343 11.7ZM39.8843 20.3125C39.1295 20.735 38.5622 20.735 37.9684 20.735H35.1247V20.3125C34.7809 20.5725 34.1872 20.735 33.6247 20.735H24.6559V19.2075C24.6559 19.0125 24.6559 19.0125 24.4684 19.0125H24.3122V20.735H21.3434V18.9475C20.8434 19.175 20.2809 19.175 19.8122 19.175H19.4684V20.735H15.8747L14.9997 19.695L14.0622 20.735H8.24968V14.0725H14.1872L15.0309 15.08L15.9372 14.0075H19.8747C20.3434 14.0075 21.0934 14.0725 21.4372 14.3975V14.0075H24.9997C25.3122 14.0075 26.0309 14.0725 26.4684 14.3975V14.0075H31.8434V14.3975C32.1247 14.1375 32.6872 14.0075 33.1559 14.0075H36.1559V14.3975C36.4684 14.17 36.9059 14.0075 37.5309 14.0075H39.999V14.95H37.3747C36.2497 14.95 35.8122 15.6975 35.8122 16.38C35.8122 17.9075 37.0934 17.8425 38.1247 17.875C38.3122 17.875 38.4059 17.9075 38.4997 17.9725C38.5622 18.0375 38.6247 18.1675 38.6247 18.2975C38.6247 18.46 38.5622 18.5575 38.4997 18.6225C38.4059 18.72 38.2809 18.7525 38.0622 18.7525H35.9372V19.7925H38.0622C38.7809 19.7925 39.2809 19.5975 39.5622 19.175L39.7733 18.9475L39.8843 20.3125ZM39.999 16.0225L39.7733 17.6642C39.7421 17.5992 39.4997 17.3225 39.4684 17.29C39.2184 17.03 38.8122 16.9325 38.2184 16.9H37.6247C37.4684 16.9 37.3434 16.8675 37.2184 16.835C37.0622 16.77 36.9684 16.6725 36.9684 16.4775C36.9684 16.315 36.9997 16.185 37.1247 16.12C37.2184 16.0225 37.3747 16.0225 37.5622 16.0225H39.999Z" fill="#767676"/>
<path d="M27.3125 19.8256H30.9687V18.8181H28.4062V17.8756H30.9062V16.9006H28.4062V16.0231H30.9687V15.0156H27.3125V19.8256Z" fill="#767676"/>
<path d="M19.9062 15.0156H16.4062L15 16.5756L13.6562 15.0156H9.25V19.7606H13.5937L15 18.1681L16.3437 19.7606H18.4687V18.1681H19.8437C20.8125 18.1681 21.75 17.9081 21.75 16.5756C21.75 15.2756 20.7812 15.0156 19.9062 15.0156ZM13.0312 18.7856H10.3437V17.8431H12.75V16.8681H10.3437V15.9906H13.0937L14.2812 17.3881L13.0312 18.7856ZM17.375 19.3706L15.6875 17.4206L17.375 15.5356V19.3706ZM19.9062 17.2256H18.4687V16.0231H19.9062C20.3125 16.0231 20.5625 16.1856 20.5625 16.6081C20.5937 16.9981 20.3125 17.2256 19.9062 17.2256Z" fill="#767676"/>
<path d="M26.6865 16.3156C26.6865 15.7631 26.4678 15.4706 26.124 15.2431C25.7803 15.0481 25.374 15.0156 24.8115 15.0156H22.2803V19.7606H23.374V18.0056H24.5615C24.9678 18.0056 25.2178 18.0706 25.374 18.2331C25.5928 18.4606 25.5615 18.8831 25.5615 19.1756V19.7606H26.6553V18.8181C26.6553 18.3956 26.624 18.1681 26.4678 17.9406C26.374 17.8106 26.1865 17.6481 25.9365 17.5506C26.2178 17.4531 26.6865 17.0631 26.6865 16.3156ZM25.249 16.9656C25.0928 17.0631 24.9053 17.0631 24.7178 17.0631H23.374V15.9906H24.7178C24.9053 15.9906 25.124 15.9906 25.249 16.0881C25.4053 16.1531 25.4678 16.3156 25.4678 16.5106C25.499 16.7056 25.4053 16.8681 25.249 16.9656Z" fill="#767676"/>
<path d="M23.75 6.79297H22.625V11.5705H23.75V6.79297Z" fill="#767676"/>
</g>
<path d="M36.5157 26H3.48433C1.5331 26 0 24.5104 0 22.6146V3.38541C0 1.48958 1.5331 0 3.48433 0H36.5157C38.4669 0 40 1.48958 40 3.38541V22.6146C40 24.5104 38.4669 26 36.5157 26ZM3.48433 0.27085C1.67248 0.27085 0.278678 1.625 0.278678 3.38541V22.6146C0.278678 24.375 1.67248 25.7292 3.48433 25.7292H36.5157C38.3275 25.7292 39.7213 24.375 39.7213 22.6146V3.38541C39.7213 1.625 38.3275 0.27085 36.5157 0.27085H3.48433Z" fill="#767676"/>
<defs>
<clipPath id="clip0_38321_24743">
<rect width="40" height="26" fill="white"/>
</clipPath>
</defs>
</svg>
