<svg version="1.1" id="Layer_1" xmlns="http://www.w3.org/2000/svg" xmlns:xlink="http://www.w3.org/1999/xlink" x="0" y="0" viewBox="0 0 125.4 78.5" xml:space="preserve"><style>.st1{fill:#0872b9}.st2{fill:#fff}.st3{fill:#fbed1f}</style><defs><path id="SVGID_1_" d="M0 0h125.4v78.4H0z"/></defs><clipPath id="SVGID_2_"><use xlink:href="#SVGID_1_" overflow="visible"/></clipPath><g clip-path="url(#SVGID_2_)"><path id="Fill-1" class="st1" d="M125.4 74.2c0 2.3-1.9 4.2-4.2 4.2H4.1c-2.3 0-4.2-1.9-4.2-4.2v-70C-.1 1.9 1.8 0 4.1 0h117.1c2.3 0 4.2 1.9 4.2 4.2v70"/></g><g><path class="st1" d="M9.6 58h106.6v20H9.6zM9.6 1h106.6v20H9.6zM9.6 22.7h106.6v33.7H9.6z"/><path class="st2" d="M109.9 7.9H101l.7 1.1h8.9l3 2s.7.7.2 1.1l-3.5 2.6h-17L92 13v4.8H71V8.4h15.4v4.8h-8.9v1.7h10.9V8.6h5.9l3.5 3.5h10v-1.7h-10L93 5.5h15.4l1.5 2.4z"/><path class="st2" d="M94.9 16h2.2v2h-2.2zM100.1 16h2.2v2h-2.2zM22.5 6.6h3v2.8h-3zM26.4 6.6h3v2.8h-3zM51.4 6.6h3v2.8h-3zM58.2 11.2H66V14h-7.8z"/><path class="st2" d="M49.9 10.1h5.4v6.3H14.9l-3.1-3.9 5.2-7h4.2l-3.1 7h26.8v-2.2h3.7v2.2h1.3z"/><g><path class="st2" d="M33.4 74.1h-3.5v-5.9c0-1.3 0-2-.2-2.4-.2-.4-.4-.7-.7-.9-.2-.2-.7-.2-1.1-.2-.7 0-1.1.2-1.5.4s-.9.7-.9 1.1c-.2.4-.4 1.3-.4 2.6V74h-3.3V62.5h3v1.7c1.1-1.3 2.6-2 4.1-2 .7 0 1.3.2 2 .4s1.1.7 1.3.9c.2.4.4.9.7 1.3.2.4.2 1.1.2 2V74h.3zM64.7 70.4l3.3.4c-.4 1.1-1.1 2-2 2.6s-2.2.9-3.5.9c-2.2 0-3.9-.7-4.8-2-.9-1.1-1.3-2.4-1.3-3.9 0-2 .7-3.5 1.7-4.6 1.1-1.1 2.4-1.5 4.1-1.5 2 0 3.3.7 4.4 1.7s1.5 2.8 1.5 5.2h-8.3c0 .9.2 1.5.9 2.2.4.4 1.1.7 2 .7.4 0 .9-.2 1.3-.4.2-.2.5-.7.7-1.3zm.2-3.1c0-.9-.2-1.5-.7-2-.4-.4-1.1-.7-1.7-.7s-1.3.2-1.7.7-.7 1.1-.7 2h4.8zM103.8 62.5v2.4h-2.2v6.3c0 .2.2.2.2.4.2 0 .4.2.7.2.2 0 .7 0 1.3-.2l.2 2.4c-.9.2-1.7.4-2.6.4-.7 0-1.1 0-1.5-.2-.4-.2-.9-.4-1.1-.7-.2-.2-.4-.7-.4-1.1 0-.4-.2-1.1-.2-2.2v-5h-1.5V63h1.5v-2.4l3.3-1.7V63h2.4v-.5z"/></g><g><path class="st3" d="M24 25.3h25.2v27H24z"/><path class="st3" d="M48.4 37.3l18.7-11.7h33.3L82.1 37.3l19.8 14.6H66.2L48.8 38.4z"/></g></g></svg>