<svg width="41" height="26" viewBox="0 0 41 26" fill="none" xmlns="http://www.w3.org/2000/svg">
<path d="M3.98557 0.136719H37.0169C38.8288 0.136719 40.3619 1.6263 40.3619 3.38672V22.6159C40.3619 24.3763 38.8288 25.8659 37.0169 25.8659H3.98557C2.17373 25.8659 0.640625 24.3763 0.640625 22.6159V3.38672C0.640625 1.6263 2.17373 0.136719 3.98557 0.136719Z" fill="white"/>
<path d="M15.5671 15.0676C14.8335 15.9356 13.8387 16.3696 12.5827 16.3696C12.0992 16.3696 11.6393 16.2915 11.203 16.1352C10.7695 15.9761 10.386 15.7486 10.0526 15.4527C9.72192 15.1541 9.46349 14.7954 9.27731 14.3767C9.09114 13.9581 8.99805 13.4989 8.99805 12.9993C8.99805 12.3657 9.1481 11.7949 9.44821 11.2869C9.74832 10.7761 10.1568 10.3783 10.6737 10.0936C11.1933 9.80615 11.7671 9.6624 12.3951 9.6624C12.9675 9.6624 13.5164 9.77824 14.0415 10.0099C14.5695 10.2388 15.0447 10.5612 15.4671 10.9771L14.7751 11.5674C14.4139 11.2604 14.0429 11.0231 13.6622 10.8556C13.2843 10.6854 12.8786 10.6002 12.4451 10.6002C11.9783 10.6002 11.5517 10.7007 11.1655 10.9017C10.7792 11.1027 10.4736 11.3888 10.2485 11.76C10.0234 12.1284 9.91088 12.5471 9.91088 13.016C9.91088 13.5156 10.0359 13.9483 10.286 14.3139C10.5361 14.6768 10.8709 14.9531 11.2905 15.1429C11.7101 15.3327 12.1603 15.4276 12.641 15.4276C12.8883 15.4276 13.112 15.4081 13.3121 15.369C13.515 15.3271 13.7123 15.2615 13.904 15.1722C14.0985 15.0801 14.2791 14.9713 14.4459 14.8457C14.6154 14.7173 14.7849 14.5679 14.9544 14.3977L15.5671 15.0676Z" fill="black"/>
<path d="M23.7867 13.0244C23.7867 13.4822 23.695 13.9176 23.5116 14.3307C23.331 14.7438 23.0809 15.1024 22.7614 15.4067C22.4418 15.7109 22.0736 15.9482 21.6568 16.1184C21.24 16.2859 20.8065 16.3696 20.3563 16.3696C19.7255 16.3696 19.1476 16.2175 18.6224 15.9133C18.0972 15.6063 17.6845 15.1904 17.3844 14.6656C17.0843 14.1409 16.9343 13.5603 16.9343 12.9239C16.9343 12.3126 17.0913 11.7558 17.4053 11.2534C17.722 10.7482 18.143 10.3518 18.6682 10.0643C19.1962 9.77405 19.7617 9.62891 20.3647 9.62891C20.9816 9.62891 21.5526 9.77824 22.0778 10.0769C22.603 10.3756 23.0184 10.7873 23.3241 11.312C23.6325 11.834 23.7867 12.4048 23.7867 13.0244ZM22.8656 12.9742C22.8656 12.5164 22.7516 12.1047 22.5238 11.7391C22.2987 11.3734 21.9944 11.0873 21.611 10.8808C21.2275 10.6742 20.8093 10.5709 20.3563 10.5709C19.8923 10.5709 19.4685 10.6756 19.085 10.8849C18.7016 11.0943 18.3987 11.3874 18.1764 11.7642C17.9568 12.141 17.8471 12.5638 17.8471 13.0328C17.8471 13.4794 17.9624 13.8869 18.193 14.2553C18.4265 14.621 18.7377 14.9085 19.1267 15.1178C19.5157 15.3243 19.9284 15.4276 20.3647 15.4276C20.7037 15.4276 21.0232 15.3662 21.3233 15.2434C21.6262 15.1206 21.8944 14.9461 22.1278 14.72C22.364 14.4912 22.546 14.2288 22.6738 13.9329C22.8017 13.6371 22.8656 13.3175 22.8656 12.9742Z" fill="black"/>
<path d="M31.998 12.9909C31.998 13.4291 31.9133 13.8576 31.7438 14.2762C31.5743 14.6921 31.3436 15.055 31.0519 15.3648C30.7712 15.6718 30.4711 15.891 30.1515 16.0221C29.832 16.1505 29.4555 16.2147 29.022 16.2147H25.9208V9.81731H28.997C29.4249 9.81731 29.8223 9.89965 30.1891 10.0643C30.5559 10.229 30.874 10.4579 31.1436 10.751C31.4159 11.0413 31.6257 11.3804 31.773 11.7684C31.923 12.1535 31.998 12.5611 31.998 12.9909ZM31.0602 13.0579C31.0602 12.7509 31.0144 12.4564 30.9227 12.1745C30.831 11.8898 30.6962 11.6414 30.5183 11.4292C30.3433 11.2171 30.1265 11.051 29.8681 10.931C29.6125 10.811 29.3249 10.751 29.0053 10.751H26.8337V15.2811H29.022C29.4249 15.2811 29.7806 15.1806 30.089 14.9796C30.3975 14.7759 30.6364 14.5051 30.8059 14.1674C30.9755 13.8269 31.0602 13.457 31.0602 13.0579Z" fill="black"/>
<path d="M37.0157 26H3.98432C2.0331 26 0.5 24.5104 0.5 22.6146V3.38542C0.5 1.48958 2.0331 0 3.98432 0H37.0157C38.8275 0 40.5 1.48958 40.5 3.38542V22.6146C40.5 24.5104 38.8275 26 37.0157 26ZM3.98432 0.270833C2.17247 0.270833 0.778746 1.625 0.778746 3.38542V22.6146C0.778746 24.375 2.17247 25.7292 3.98432 25.7292H37.0157C38.8275 25.7292 40.2213 24.375 40.2213 22.6146V3.38542C40.2213 1.625 38.8275 0.270833 37.0157 0.270833H3.98432Z" fill="#C4C4C4"/>
</svg>
