<svg width="41" height="26" viewBox="0 0 41 26" fill="none" xmlns="http://www.w3.org/2000/svg">
<g clip-path="url(#clip0_43958_46322)">
<rect x="0.5" width="40" height="26" rx="4" fill="url(#paint0_linear_43958_46322)"/>
<path d="M37.4021 20.9336H3.59786C1.88883 20.9336 0.5 19.5447 0.5 17.8317V8.09786C0.5 6.38883 1.88883 5 3.59786 5H37.4021C39.1152 5 40.5 6.38883 40.5 8.09786V17.8317C40.5 19.5447 39.1112 20.9336 37.4021 20.9336Z" fill="url(#paint1_linear_43958_46322)"/>
<path d="M35.1179 10.0547L32.9807 18.2236L32.9727 18.2396H34.6417L36.7869 10.0547H35.1179Z" fill="#292929"/>
<path d="M8.64548 14.7018C8.42535 14.8179 8.12517 14.8859 7.84099 14.8859C7.24063 14.8859 6.90043 14.7898 6.86441 14.3055V14.2735C6.86441 14.2535 6.86041 14.2335 6.86041 14.2135V12.8046L6.86441 12.6365V11.6399H6.86041V11.2157L6.86441 11.0476V10.087L5.37552 10.2831C6.38412 10.087 6.96047 9.29053 6.96047 8.49806V8.00977H5.28746V10.2951L5.19141 10.3232V14.5577C5.24744 15.7464 6.03191 16.4548 7.31668 16.4548C7.77295 16.4548 8.27325 16.3508 8.65748 16.1787L8.66549 16.1747V14.6898L8.64548 14.7018Z" fill="#292929"/>
<path d="M8.90966 9.74707L4.21484 10.4715V11.6602L8.90966 10.9358V9.74707Z" fill="#292929"/>
<path d="M8.90966 11.4883L4.21484 12.2127V13.3494L8.90966 12.625V11.4883Z" fill="#292929"/>
<path d="M14.1725 12.0369C14.1045 10.7161 13.28 9.93164 11.9352 9.93164C11.1627 9.93164 10.5223 10.2318 10.0901 10.7962C9.65782 11.3605 9.42969 12.189 9.42969 13.1936C9.42969 14.1982 9.65782 15.0307 10.0901 15.591C10.5223 16.1554 11.1627 16.4556 11.9352 16.4556C13.28 16.4556 14.1085 15.6671 14.1725 14.3383V16.3315H15.8455V10.0677L14.1725 10.3239V12.0369ZM14.2606 13.1936C14.2606 14.3663 13.6442 15.1228 12.6956 15.1228C11.7151 15.1228 11.1307 14.4023 11.1307 13.1936C11.1307 11.9809 11.7151 11.2524 12.6956 11.2524C13.1719 11.2524 13.5722 11.4365 13.8483 11.7888C14.1165 12.137 14.2606 12.6213 14.2606 13.1936Z" fill="#292929"/>
<path d="M20.7248 9.9311C19.376 9.9311 18.5515 10.7156 18.4875 12.0404V8.24609L16.8145 8.50225V16.3309H18.4875V14.3377C18.5515 15.6665 19.38 16.455 20.7248 16.455C22.3018 16.455 23.2423 15.2343 23.2423 13.1931C23.2423 11.1518 22.3018 9.9311 20.7248 9.9311ZM19.9643 15.1222C19.0118 15.1222 18.3994 14.3658 18.3994 13.1931C18.3994 12.6207 18.5435 12.1364 18.8117 11.7922C19.0878 11.44 19.4881 11.2559 19.9643 11.2559C20.9449 11.2559 21.5293 11.9803 21.5293 13.1971C21.5293 14.4018 20.9449 15.1222 19.9643 15.1222Z" fill="#292929"/>
<path d="M27.7932 9.9311C26.4444 9.9311 25.6199 10.7156 25.5558 12.0404V8.24609L23.8828 8.50225V16.3309H25.5558V14.3377C25.6199 15.6665 26.4484 16.455 27.7932 16.455C29.3701 16.455 30.3107 15.2343 30.3107 13.1931C30.3107 11.1518 29.3701 9.9311 27.7932 9.9311ZM27.0367 15.1222C26.0841 15.1222 25.4718 14.3658 25.4718 13.1931C25.4718 12.6207 25.6159 12.1364 25.884 11.7922C26.1602 11.44 26.5604 11.2559 27.0367 11.2559C28.0173 11.2559 28.6016 11.9803 28.6016 13.1971C28.6016 14.4018 28.0173 15.1222 27.0367 15.1222Z" fill="#292929"/>
<path d="M30.3145 10.0547H32.0995L33.5524 16.3224H31.9514L30.3145 10.0547Z" fill="#292929"/>
</g>
<path d="M37.0157 26H3.98432C2.0331 26 0.5 24.5104 0.5 22.6146V3.38542C0.5 1.48958 2.0331 0 3.98432 0H37.0157C38.8275 0 40.5 1.48958 40.5 3.38542V22.6146C40.5 24.5104 38.8275 26 37.0157 26ZM3.98432 0.270833C2.17247 0.270833 0.778746 1.625 0.778746 3.38542V22.6146C0.778746 24.375 2.17247 25.7292 3.98432 25.7292H37.0157C38.8275 25.7292 40.2213 24.375 40.2213 22.6146V3.38542C40.2213 1.625 38.8275 0.270833 37.0157 0.270833H3.98432Z" fill="#C4C4C4"/>
<defs>
<linearGradient id="paint0_linear_43958_46322" x1="0.5" y1="12.999" x2="40.5004" y2="12.999" gradientUnits="userSpaceOnUse">
<stop stop-color="#3BFF9D"/>
<stop offset="1" stop-color="#3BFFC8"/>
</linearGradient>
<linearGradient id="paint1_linear_43958_46322" x1="0.5" y1="12.9662" x2="40.5004" y2="12.9662" gradientUnits="userSpaceOnUse">
<stop stop-color="#3BFF9D"/>
<stop offset="1" stop-color="#3BFFC8"/>
</linearGradient>
<clipPath id="clip0_43958_46322">
<rect x="0.5" width="40" height="26" rx="4" fill="white"/>
</clipPath>
</defs>
</svg>
