<svg xmlns="http://www.w3.org/2000/svg" width="32" height="22" viewBox="0 0 32 22">
    <g fill="none" fill-rule="evenodd">
        <rect width="31" height="21" x=".5" y=".5" fill="#FFF" stroke="#000" rx="2"/>
        <g fill-rule="nonzero">
            <path fill="#002987" d="M19.158 8.48c.017-.132.025-.266.025-.403 0-1.147-.918-2.077-2.05-2.077h-3.426c-.215 0-.4.158-.435.373l-1.262 7.603a.445.445 0 0 0 .435.521h1.253a.447.447 0 0 0 .439-.373l.005-.035-.174 1.051c-.04.24.143.46.383.46h1.097a.39.39 0 0 0 .383-.329l.312-1.875a.665.665 0 0 1 .653-.56h.288c1.564 0 2.832-1.285 2.832-2.87 0-.613-.3-1.155-.758-1.486z"/>
            <path fill="#0085CC" d="M19.158 8.48c-.196 1.616-1.555 2.867-3.202 2.867H15a.48.48 0 0 0-.46.352l-.572 3.441c-.04.24.143.46.383.46h1.097a.39.39 0 0 0 .383-.329l.312-1.875a.665.665 0 0 1 .653-.56h.288c1.564 0 2.832-1.285 2.832-2.87 0-.613-.3-1.155-.758-1.486z"/>
            <path fill="#00186A" d="M15 11.347h.956c1.647 0 3.006-1.25 3.202-2.867a1.774 1.774 0 0 0-1.041-.337h-2.495a.584.584 0 0 0-.574.492l-.509 3.064a.48.48 0 0 1 .46-.352z"/>
        </g>
    </g>
</svg>
